# vtk DataFile Version 2.0
Rays
ASCII
DATASET POLYDATA
POINTS 39 double
0 6.25e-05 0.0038125
0 0.001258232607 0.005008232607
0 6.25e-05 0.0039375
0 0.001258232607 0.005133232607
0 6.25e-05 0.0040625
0 0.001258232607 0.005258232607
0 0.001131625625 0.005384839589
0 6.25e-05 0.0041875
0 0.001258232607 0.005383232607
0 0.001244165165 0.00539730005
0 6.25e-05 0.0043125
0 0.001131625625 0.005381625625
0 6.25e-05 0.0044375
0 0.001131625625 0.005506625625
0 6.25e-05 0.0045625
0 0.001131625625 0.005631625625
0 6.25e-05 0.0046875
0 0.001131625625 0.005756625625
0 6.25e-05 0.0048125
0 0.001131625625 0.005881625625
0 6.25e-05 0.0049375
0 0.001131625625 0.006006625625
0 6.25e-05 0.0050625
0 0.001131625625 0.006131625625
0 0.001005018643 0.006258232607
0 6.25e-05 0.0051875
0 0.001131625625 0.006256625625
0 0.001117558183 0.006270693068
0 6.25e-05 0.0053125
0 0.001005018643 0.006255018643
0 6.25e-05 0.0054375
0 0.001005018643 0.006380018643
0 0.0009875353964 0.006389511901
0 6.25e-05 0.0055625
0 0.0008784116615 0.006378411662
0 6.25e-05 0.0056875
0 0.0008784116615 0.006503411662
0 6.25e-05 0.0058125
0 0.0007518046796 0.00650180468
LINES 17 56
2 0 1
2 2 3
3 4 5 6
3 7 8 9
2 10 11
2 12 13
2 14 15
2 16 17
2 18 19
2 20 21
3 22 23 24
3 25 26 27
2 28 29
3 30 31 32
2 33 34
2 35 36
2 37 38
