# vtk DataFile Version 2.0
Rays
ASCII
DATASET POLYDATA
POINTS 27 double
0 6.25e-05 0.0033125
0 0.001017429659 0.0033125
0 0.0007166106296 0.00737973607
0 0.001000393975 0.004069518669
0 6.25e-05 0.0034375
0 0.001136795866 0.0034375
0 6.25e-05 0.0035625
0 0.001136795866 0.0035625
0 6.25e-05 0.0036875
0 0.001136795866 0.0036875
0 6.25e-05 0.0038125
0 0.001136795866 0.0038125
0 6.25e-05 0.0039375
0 0.001017429659 0.0039375
0 0.0009149444336 0.00310824548
0 6.25e-05 0.0040625
0 0.001017429659 0.0040625
0 6.25e-05 0.0041875
0 0.001136795866 0.0041875
0 6.25e-05 0.0043125
0 0.001136795866 0.0043125
0 6.25e-05 0.0044375
0 0.001256162073 0.0044375
0 6.25e-05 0.0045625
0 0.001256162073 0.0045625
0 6.25e-05 0.0046875
0 0.001256162073 0.0046875
LINES 12 39
4 0 1 2 3
2 4 5
2 6 7
2 8 9
2 10 11
3 12 13 14
2 15 16
2 17 18
2 19 20
2 21 22
2 23 24
2 25 26
