# vtk DataFile Version 2.0
Rays
ASCII
DATASET POLYDATA
POINTS 44 double
0 6.25e-05 0.0050625
0 0.001258232607 0.006258232607
0 6.25e-05 0.0051875
0 0.001258232607 0.006383232607
0 6.25e-05 0.0053125
0 0.001258232607 0.006508232607
0 6.25e-05 0.0054375
0 0.001258232607 0.006633232607
0 0.0005126581581 0.007378807057
0 6.25e-05 0.0055625
0 0.001258232607 0.006758232607
0 0.00063926514 0.007377200075
0 6.25e-05 0.0056875
0 0.001258232607 0.006883232607
0 0.0007994893892 0.007380307179
0 6.25e-05 0.0058125
0 0.001258232607 0.007008232607
0 0.001081367165 0.00738672988
0 6.25e-05 0.0059375
0 0.001258232607 0.007133232607
0 0.0009968470614 0.007378002335
0 0.0008589493786 0.007397437789
0 6.25e-05 0.0060625
0 0.001258232607 0.007258232607
0 0.0007957088101 0.007376741679
0 6.25e-05 0.0061875
0 0.001258232607 0.007383232607
0 6.25e-05 0.0063125
0 0.001131625625 0.007381625625
0 0.001252318519 0.007044478998
0 6.25e-05 0.0064375
0 0.001005018643 0.007380018643
0 0.001211874914 0.005361363965
0 6.25e-05 0.0065625
0 0.0008784116615 0.007378411662
0 6.25e-05 0.0066875
0 0.0007518046796 0.00737680468
0 0.001251474888 0.005369032359
0 6.25e-05 0.0068125
0 0.0006251976976 0.007375197698
0 0.001253930746 0.006920571403
0 6.25e-05 0.0069375
0 0.0005126581581 0.007387658158
0 0.001242077886 0.005366669962
LINES 16 60
2 0 1
2 2 3
2 4 5
3 6 7 8
3 9 10 11
3 12 13 14
3 15 16 17
4 18 19 20 21
3 22 23 24
2 25 26
3 27 28 29
3 30 31 32
2 33 34
3 35 36 37
3 38 39 40
3 41 42 43
