# vtk DataFile Version 2.0
Rays
ASCII
DATASET POLYDATA
POINTS 43 double
0 6.25e-05 0.0050625
0 0.001258232607 0.006258232607
0 6.25e-05 0.0051875
0 0.001258232607 0.006383232607
0 6.25e-05 0.0053125
0 0.001258232607 0.006508232607
0 0.000206800822 0.00751004802
0 6.25e-05 0.0054375
0 0.001258232607 0.006633232607
0 0.0004985907156 0.007392874499
0 6.25e-05 0.0055625
0 0.001258232607 0.006758232607
0 0.0004985907156 0.007517874499
0 6.25e-05 0.0056875
0 0.001258232607 0.006883232607
0 0.0008784116615 0.007263053553
0 0.0004926022944 0.007469721149
0 6.25e-05 0.0058125
0 0.001258232607 0.007008232607
0 0.001069156861 0.007264302024
0 0.0009907919589 0.007250463091
0 6.25e-05 0.0059375
0 0.001258232607 0.007133232607
0 0.001131625625 0.007259839589
0 0.0011117445 0.007259113822
0 6.25e-05 0.0060625
0 0.001258232607 0.007258232607
0 6.25e-05 0.0061875
0 0.001131625625 0.007256625625
0 0.001232507269 0.004493149235
0 6.25e-05 0.0063125
0 0.001005018643 0.007255018643
0 0.001078329147 0.004371266996
0 6.25e-05 0.0064375
0 0.0008784116615 0.007253411662
0 6.25e-05 0.0065625
0 0.001005018643 0.007505018643
0 6.25e-05 0.0066875
0 0.001005018643 0.007630018643
0 6.25e-05 0.0068125
0 0.001005018643 0.007755018643
0 6.25e-05 0.0069375
0 0.001005018643 0.007880018643
LINES 16 59
2 0 1
2 2 3
3 4 5 6
3 7 8 9
3 10 11 12
4 13 14 15 16
4 17 18 19 20
4 21 22 23 24
2 25 26
3 27 28 29
3 30 31 32
2 33 34
2 35 36
2 37 38
2 39 40
2 41 42
