# vtk DataFile Version 2.0
Rays
ASCII
DATASET POLYDATA
POINTS 39 double
0 6.25e-05 0.0050625
0 0.001131625625 0.006131625625
0 6.25e-05 0.0051875
0 0.001131625625 0.006256625625
0 6.25e-05 0.0053125
0 0.001131625625 0.006381625625
0 6.25e-05 0.0054375
0 0.001131625625 0.006506625625
0 6.25e-05 0.0055625
0 0.001131625625 0.006631625625
0 0.001117558183 0.006645693068
0 6.25e-05 0.0056875
0 0.001005018643 0.006630018643
0 6.25e-05 0.0058125
0 0.001005018643 0.006755018643
0 6.25e-05 0.0059375
0 0.001005018643 0.006880018643
0 6.25e-05 0.0060625
0 0.001005018643 0.007005018643
0 0.000990951201 0.007019086086
0 6.25e-05 0.0061875
0 0.0008784116615 0.007003411662
0 6.25e-05 0.0063125
0 0.0008784116615 0.007128411662
0 6.25e-05 0.0064375
0 0.0007518046796 0.00712680468
0 6.25e-05 0.0044375
0 0.001131625625 0.005506625625
0 6.25e-05 0.0045625
0 0.001131625625 0.005631625625
0 0.001243731186 0.006013393477
0 6.25e-05 0.0046875
0 0.001258232607 0.005883232607
0 0.001131625625 0.006009839589
0 6.25e-05 0.0048125
0 0.001258232607 0.006008232607
0 0.001244165165 0.00602230005
0 6.25e-05 0.0049375
0 0.001131625625 0.006006625625
LINES 17 56
2 0 1
2 2 3
2 4 5
2 6 7
3 8 9 10
2 11 12
2 13 14
2 15 16
3 17 18 19
2 20 21
2 22 23
2 24 25
2 26 27
3 28 29 30
3 31 32 33
3 34 35 36
2 37 38
