# vtk DataFile Version 2.0
Rays
ASCII
DATASET POLYDATA
POINTS 24 double
0 6.25e-05 0.0050625
0 0.001256162073 0.0050625
0 6.25e-05 0.0051875
0 0.0008781690833 0.0051875
0 6.25e-05 0.0053125
0 0.001017429659 0.0053125
0 6.25e-05 0.0054375
0 0.001017429659 0.0054375
0 6.25e-05 0.0055625
0 0.001017429659 0.0055625
0 6.25e-05 0.0056875
0 0.001017429659 0.0056875
0 6.25e-05 0.0058125
0 0.001017429659 0.0058125
0 6.25e-05 0.0059375
0 0.001017429659 0.0059375
0 6.25e-05 0.0060625
0 0.001017429659 0.0060625
0 6.25e-05 0.0061875
0 0.001017429659 0.0061875
0 6.25e-05 0.0063125
0 0.001017429659 0.0063125
0 6.25e-05 0.0064375
0 0.001017429659 0.0064375
LINES 12 36
2 0 1
2 2 3
2 4 5
2 6 7
2 8 9
2 10 11
2 12 13
2 14 15
2 16 17
2 18 19
2 20 21
2 22 23
