# vtk DataFile Version 2.0
Rays
ASCII
DATASET POLYDATA
POINTS 43 double
0 6.25e-05 0.0050625
0 0.001258232607 0.006258232607
0 6.25e-05 0.0051875
0 0.001258232607 0.006383232607
0 6.25e-05 0.0053125
0 0.001258232607 0.006508232607
0 6.25e-05 0.0054375
0 0.001258232607 0.006633232607
0 0.0005126581581 0.007378807057
0 6.25e-05 0.0055625
0 0.001258232607 0.006758232607
0 0.00063926514 0.007377200075
0 6.25e-05 0.0056875
0 0.001258232607 0.006883232607
0 0.000765872122 0.007375593093
0 0.0007459896266 0.007376280298
0 6.25e-05 0.0058125
0 0.001258232607 0.007008232607
0 0.0009587452071 0.007380092743
0 0.0008592734081 0.007380003082
0 6.25e-05 0.0059375
0 0.001258232607 0.007133232607
0 0.001055200149 0.00737838359
0 6.25e-05 0.0060625
0 0.001258232607 0.007258232607
0 0.001101764604 0.007381099817
0 6.25e-05 0.0061875
0 0.001258232607 0.007383232607
0 6.25e-05 0.0063125
0 0.001131625625 0.007381625625
0 0.001254385367 0.007109629546
0 6.25e-05 0.0064375
0 0.001005018643 0.007380018643
0 0.001254503213 0.006478881337
0 6.25e-05 0.0065625
0 0.0008784116615 0.007378411662
0 6.25e-05 0.0066875
0 0.0007518046796 0.00737680468
0 6.25e-05 0.0068125
0 0.0006251976976 0.007375197698
0 0.001254488389 0.006529174208
0 6.25e-05 0.0069375
0 0.0005126581581 0.007387658158
LINES 16 59
2 0 1
2 2 3
2 4 5
3 6 7 8
3 9 10 11
4 12 13 14 15
4 16 17 18 19
3 20 21 22
3 23 24 25
2 26 27
3 28 29 30
3 31 32 33
2 34 35
2 36 37
3 38 39 40
2 41 42
