# vtk DataFile Version 2.0
Rays
ASCII
DATASET POLYDATA
POINTS 36 double
0 6.25e-05 0.0014375
0 0.001131625625 0.002506625625
0 0.001005018643 0.002633232607
0 6.25e-05 0.0015625
0 0.001131625625 0.002631625625
0 6.25e-05 0.0016875
0 0.001005018643 0.002630018643
0 6.25e-05 0.0018125
0 0.001005018643 0.002755018643
0 0.000990951201 0.002769086086
0 6.25e-05 0.0019375
0 0.0008784116615 0.002753411662
0 6.25e-05 0.0020625
0 0.001005018643 0.003005018643
0 6.25e-05 0.0021875
0 0.001005018643 0.003130018643
0 6.25e-05 0.0023125
0 0.001005018643 0.003255018643
0 6.25e-05 0.0024375
0 0.001005018643 0.003380018643
0 6.25e-05 0.0025625
0 0.001005018643 0.003505018643
0 6.25e-05 0.0026875
0 0.001005018643 0.003630018643
0 6.25e-05 0.0028125
0 0.001005018643 0.003755018643
0 6.25e-05 0.0029375
0 0.001005018643 0.003880018643
0 6.25e-05 0.0030625
0 0.001005018643 0.004005018643
0 6.25e-05 0.0031875
0 0.001005018643 0.004130018643
0 6.25e-05 0.0033125
0 0.001005018643 0.004255018643
0 6.25e-05 0.0034375
0 0.001005018643 0.004380018643
LINES 17 53
3 0 1 2
2 3 4
2 5 6
3 7 8 9
2 10 11
2 12 13
2 14 15
2 16 17
2 18 19
2 20 21
2 22 23
2 24 25
2 26 27
2 28 29
2 30 31
2 32 33
2 34 35
