# vtk DataFile Version 2.0
Rays
ASCII
DATASET POLYDATA
POINTS 42 double
0 6.25e-05 0.0001875
0 0.001005018643 0.001130018643
0 6.25e-05 0.0003125
0 0.0008784116615 0.001128411662
0 0.001128291954 0.002070665195
0 0.001077295976 0.002262961835
0 6.25e-05 0.0004375
0 0.001131625625 0.001506625625
0 6.25e-05 0.0005625
0 0.001131625625 0.001631625625
0 6.25e-05 0.0006875
0 0.001131625625 0.001756625625
0 6.25e-05 0.0008125
0 0.001131625625 0.001881625625
0 6.25e-05 0.0009375
0 0.001131625625 0.002006625625
0 0.0007518046796 0.002386446571
0 6.25e-05 0.0010625
0 0.001131625625 0.002131625625
0 0.001005018643 0.002258232607
0 0.0008471444313 0.002379287638
0 6.25e-05 0.0011875
0 0.001131625625 0.002256625625
0 0.001117558183 0.002270693068
0 0.000975471392 0.002379642596
0 6.25e-05 0.0013125
0 0.001005018643 0.002255018643
0 6.25e-05 0.0014375
0 0.001005018643 0.002380018643
0 0.001005935685 0.002360145423
0 6.25e-05 0.0015625
0 0.0008784116615 0.002378411662
0 6.25e-05 0.0016875
0 0.0007518046796 0.00237680468
0 6.25e-05 0.0018125
0 0.001005018643 0.002755018643
0 6.25e-05 0.0019375
0 0.001005018643 0.002880018643
0 6.25e-05 0.0020625
0 0.001005018643 0.003005018643
0 6.25e-05 0.0021875
0 0.001005018643 0.003130018643
LINES 17 59
2 0 1
4 2 3 4 5
2 6 7
2 8 9
2 10 11
2 12 13
3 14 15 16
4 17 18 19 20
4 21 22 23 24
2 25 26
3 27 28 29
2 30 31
2 32 33
2 34 35
2 36 37
2 38 39
2 40 41
