# vtk DataFile Version 2.0
Rays
ASCII
DATASET POLYDATA
POINTS 25 double
0 6.25e-05 0.0039375
0 0.0008781690833 0.0039375
0 6.25e-05 0.0040625
0 0.0008781690833 0.0040625
0 6.25e-05 0.0041875
0 0.001136795866 0.0041875
0 0.00125188951 0.004813629529
0 6.25e-05 0.0043125
0 0.001256162073 0.0043125
0 6.25e-05 0.0044375
0 0.001256162073 0.0044375
0 6.25e-05 0.0045625
0 0.001256162073 0.0045625
0 6.25e-05 0.0046875
0 0.001256162073 0.0046875
0 6.25e-05 0.0048125
0 0.001256162073 0.0048125
0 6.25e-05 0.0049375
0 0.001256162073 0.0049375
0 6.25e-05 0.0050625
0 0.001256162073 0.0050625
0 6.25e-05 0.0051875
0 0.001256162073 0.0051875
0 6.25e-05 0.0053125
0 0.001256162073 0.0053125
LINES 12 37
2 0 1
2 2 3
3 4 5 6
2 7 8
2 9 10
2 11 12
2 13 14
2 15 16
2 17 18
2 19 20
2 21 22
2 23 24
