# vtk DataFile Version 2.0
Rays
ASCII
DATASET POLYDATA
POINTS 40 double
0 6.25e-05 0.0031875
0 0.001131625625 0.004256625625
0 6.25e-05 0.0033125
0 0.001131625625 0.004381625625
0 6.25e-05 0.0034375
0 0.001131625625 0.004506625625
0 6.25e-05 0.0035625
0 0.001131625625 0.004631625625
0 0.001005018643 0.004758232607
0 6.25e-05 0.0036875
0 0.001131625625 0.004756625625
0 0.001132035027 0.004875991131
0 6.25e-05 0.0038125
0 0.001005018643 0.004755018643
0 6.25e-05 0.0039375
0 0.001258232607 0.005133232607
0 0.001244165165 0.00514730005
0 6.25e-05 0.0040625
0 0.001131625625 0.005131625625
0 0.001208604282 0.004992325294
0 6.25e-05 0.0041875
0 0.001005018643 0.005130018643
0 0.001006808493 0.004871398054
0 0.0007559495883 0.003118660277
0 6.25e-05 0.0043125
0 0.0008784116615 0.005128411662
0 6.25e-05 0.0044375
0 0.001005018643 0.005380018643
0 6.25e-05 0.0045625
0 0.001005018643 0.005505018643
0 6.25e-05 0.0046875
0 0.001005018643 0.005630018643
0 6.25e-05 0.0048125
0 0.001005018643 0.005755018643
0 6.25e-05 0.0049375
0 0.001005018643 0.005880018643
0 6.25e-05 0.0050625
0 0.001005018643 0.006005018643
0 6.25e-05 0.0051875
0 0.001005018643 0.006130018643
LINES 17 57
2 0 1
2 2 3
2 4 5
3 6 7 8
3 9 10 11
2 12 13
3 14 15 16
3 17 18 19
4 20 21 22 23
2 24 25
2 26 27
2 28 29
2 30 31
2 32 33
2 34 35
2 36 37
2 38 39
