# vtk DataFile Version 2.0
Rays
ASCII
DATASET POLYDATA
POINTS 26 double
0 6.25e-05 0.0050625
0 0.001256162073 0.0050625
0 6.25e-05 0.0051875
0 0.001256162073 0.0051875
0 6.25e-05 0.0053125
0 0.001256162073 0.0053125
0 6.25e-05 0.0054375
0 0.001136795866 0.0054375
0 0.001074351342 0.004365020495
0 6.25e-05 0.0055625
0 0.001136795866 0.0055625
0 0.0006368513773 0.004241435241
0 6.25e-05 0.0056875
0 0.001017429659 0.0056875
0 6.25e-05 0.0058125
0 0.001136795866 0.0058125
0 6.25e-05 0.0059375
0 0.001136795866 0.0059375
0 6.25e-05 0.0045625
0 0.001256162073 0.0045625
0 6.25e-05 0.0046875
0 0.001256162073 0.0046875
0 6.25e-05 0.0048125
0 0.001256162073 0.0048125
0 6.25e-05 0.0049375
0 0.001256162073 0.0049375
LINES 12 38
2 0 1
2 2 3
2 4 5
3 6 7 8
3 9 10 11
2 12 13
2 14 15
2 16 17
2 18 19
2 20 21
2 22 23
2 24 25
