# vtk DataFile Version 2.0
Rays
ASCII
DATASET POLYDATA
POINTS 38 double
0 6.25e-05 0.0044375
0 0.001258232607 0.005633232607
0 0.001244165165 0.00564730005
0 6.25e-05 0.0045625
0 0.001131625625 0.005631625625
0 6.25e-05 0.0046875
0 0.001131625625 0.005756625625
0 6.25e-05 0.0048125
0 0.001131625625 0.005881625625
0 6.25e-05 0.0049375
0 0.001131625625 0.006006625625
0 6.25e-05 0.0050625
0 0.001131625625 0.006131625625
0 6.25e-05 0.0051875
0 0.001131625625 0.006256625625
0 6.25e-05 0.0053125
0 0.001131625625 0.006381625625
0 6.25e-05 0.0054375
0 0.001131625625 0.006506625625
0 6.25e-05 0.0055625
0 0.001131625625 0.006631625625
0 6.25e-05 0.0056875
0 0.001131625625 0.006756625625
0 6.25e-05 0.0058125
0 0.001131625625 0.006881625625
0 0.001005018643 0.007008232607
0 6.25e-05 0.0059375
0 0.001131625625 0.007006625625
0 6.25e-05 0.0060625
0 0.001005018643 0.007005018643
0 6.25e-05 0.0061875
0 0.001005018643 0.007130018643
0 0.0008784116615 0.007256625625
0 6.25e-05 0.0063125
0 0.001005018643 0.007255018643
0 0.000990951201 0.007269086086
0 6.25e-05 0.0064375
0 0.0008784116615 0.007253411662
LINES 17 55
3 0 1 2
2 3 4
2 5 6
2 7 8
2 9 10
2 11 12
2 13 14
2 15 16
2 17 18
2 19 20
2 21 22
3 23 24 25
2 26 27
2 28 29
3 30 31 32
3 33 34 35
2 36 37
