# vtk DataFile Version 2.0
Rays
ASCII
DATASET POLYDATA
POINTS 26 double
0 6.25e-05 0.0033125
0 0.001017429659 0.0033125
0 0.0009742049918 0.004127022978
0 6.25e-05 0.0034375
0 0.001136795866 0.0034375
0 6.25e-05 0.0035625
0 0.001136795866 0.0035625
0 6.25e-05 0.0036875
0 0.001136795866 0.0036875
0 6.25e-05 0.0038125
0 0.001136795866 0.0038125
0 6.25e-05 0.0039375
0 0.001136795866 0.0039375
0 6.25e-05 0.0040625
0 0.001017429659 0.0040625
0 6.25e-05 0.0041875
0 0.0008781690833 0.0041875
0 6.25e-05 0.0043125
0 0.001017429659 0.0043125
0 0.001224986763 0.007269485328
0 6.25e-05 0.0044375
0 0.001136795866 0.0044375
0 6.25e-05 0.0045625
0 0.001256162073 0.0045625
0 6.25e-05 0.0046875
0 0.001256162073 0.0046875
LINES 12 38
3 0 1 2
2 3 4
2 5 6
2 7 8
2 9 10
2 11 12
2 13 14
2 15 16
3 17 18 19
2 20 21
2 22 23
2 24 25
