# vtk DataFile Version 2.0
Rays
ASCII
DATASET POLYDATA
POINTS 48 double
0 6.25e-05 0.0050625
0 0.001131625625 0.006131625625
0 0.0007518046796 0.006511446571
0 0.000732156528 0.006508326312
0 6.25e-05 0.0051875
0 0.001131625625 0.006256625625
0 0.001005018643 0.006383232607
0 0.000645608945 0.006500293997
0 6.25e-05 0.0053125
0 0.001131625625 0.006381625625
0 0.001117558183 0.006395693068
0 0.0007959810843 0.006500432206
0 0.0007391984274 0.006518811617
0 6.25e-05 0.0054375
0 0.001005018643 0.006380018643
0 6.25e-05 0.0055625
0 0.001005018643 0.006505018643
0 0.001019086086 0.006490951201
0 6.25e-05 0.0056875
0 0.0008784116615 0.006503411662
0 0.001128602486 0.006194026948
0 6.25e-05 0.0058125
0 0.0007518046796 0.00650180468
0 0.001091912893 0.004360156163
0 6.25e-05 0.0038125
0 0.001258232607 0.005008232607
0 6.25e-05 0.0039375
0 0.001258232607 0.005133232607
0 6.25e-05 0.0040625
0 0.001258232607 0.005258232607
0 0.001131625625 0.005384839589
0 6.25e-05 0.0041875
0 0.001258232607 0.005383232607
0 0.001242469694 0.005395370005
0 6.25e-05 0.0043125
0 0.001131625625 0.005381625625
0 6.25e-05 0.0044375
0 0.001131625625 0.005506625625
0 6.25e-05 0.0045625
0 0.001131625625 0.005631625625
0 0.001116405474 0.00564443706
0 6.25e-05 0.0046875
0 0.001005018643 0.005630018643
0 6.25e-05 0.0048125
0 0.001131625625 0.005881625625
0 6.25e-05 0.0049375
0 0.001131625625 0.006006625625
0 0.0006251976976 0.006513053553
LINES 17 65
4 0 1 2 3
4 4 5 6 7
5 8 9 10 11 12
2 13 14
3 15 16 17
3 18 19 20
3 21 22 23
2 24 25
2 26 27
3 28 29 30
3 31 32 33
2 34 35
2 36 37
3 38 39 40
2 41 42
2 43 44
3 45 46 47
