# vtk DataFile Version 2.0
Rays
ASCII
DATASET POLYDATA
POINTS 41 double
0 6.25e-05 0.0025625
0 0.0007518046796 0.00325180468
0 6.25e-05 0.0026875
0 0.001131625625 0.003756625625
0 6.25e-05 0.0028125
0 0.001131625625 0.003881625625
0 6.25e-05 0.0029375
0 0.001131625625 0.004006625625
0 6.25e-05 0.0030625
0 0.001131625625 0.004131625625
0 6.25e-05 0.0031875
0 0.001131625625 0.004256625625
0 6.25e-05 0.0033125
0 0.001131625625 0.004381625625
0 0.0007518046796 0.004761446571
0 6.25e-05 0.0034375
0 0.001131625625 0.004506625625
0 0.001005018643 0.004633232607
0 0.0008747173129 0.004756034151
0 6.25e-05 0.0035625
0 0.001131625625 0.004631625625
0 0.001117558183 0.004645693068
0 0.001001734778 0.004754849995
0 0.0009818982212 0.004753334447
0 6.25e-05 0.0036875
0 0.001005018643 0.004630018643
0 6.25e-05 0.0038125
0 0.001005018643 0.004755018643
0 0.001007121053 0.004735235677
0 6.25e-05 0.0039375
0 0.0008784116615 0.004753411662
0 6.25e-05 0.0040625
0 0.0007518046796 0.00475180468
0 6.25e-05 0.0041875
0 0.0007518046796 0.00487680468
0 6.25e-05 0.0043125
0 0.0006251976976 0.004875197698
0 6.25e-05 0.0044375
0 0.001005018643 0.005380018643
0 6.25e-05 0.0045625
0 0.001005018643 0.005505018643
LINES 17 58
2 0 1
2 2 3
2 4 5
2 6 7
2 8 9
2 10 11
3 12 13 14
4 15 16 17 18
5 19 20 21 22 23
2 24 25
3 26 27 28
2 29 30
2 31 32
2 33 34
2 35 36
2 37 38
2 39 40
