# vtk DataFile Version 2.0
Rays
ASCII
DATASET POLYDATA
POINTS 25 double
0 6.25e-05 0.0050625
0 0.001256162073 0.0050625
0 6.25e-05 0.0051875
0 0.001017429659 0.0051875
0 0.001164757403 0.00499964979
0 6.25e-05 0.0053125
0 0.001017429659 0.0053125
0 6.25e-05 0.0054375
0 0.001017429659 0.0054375
0 6.25e-05 0.0055625
0 0.001017429659 0.0055625
0 6.25e-05 0.0056875
0 0.001017429659 0.0056875
0 6.25e-05 0.0058125
0 0.001017429659 0.0058125
0 6.25e-05 0.0059375
0 0.001017429659 0.0059375
0 6.25e-05 0.0060625
0 0.001017429659 0.0060625
0 6.25e-05 0.0061875
0 0.001017429659 0.0061875
0 6.25e-05 0.0063125
0 0.001017429659 0.0063125
0 6.25e-05 0.0064375
0 0.001017429659 0.0064375
LINES 12 37
2 0 1
3 2 3 4
2 5 6
2 7 8
2 9 10
2 11 12
2 13 14
2 15 16
2 17 18
2 19 20
2 21 22
2 23 24
