# vtk DataFile Version 2.0
Rays
ASCII
DATASET POLYDATA
POINTS 37 double
0 6.25e-05 0.0014375
0 0.001131625625 0.002506625625
0 0.001005018643 0.002633232607
0 6.25e-05 0.0015625
0 0.001131625625 0.002631625625
0 0.001117558183 0.002645693068
0 6.25e-05 0.0016875
0 0.001005018643 0.002630018643
0 6.25e-05 0.0018125
0 0.001005018643 0.002755018643
0 0.0009900641944 0.00276813925
0 6.25e-05 0.0019375
0 0.0008784116615 0.002753411662
0 6.25e-05 0.0020625
0 0.001005018643 0.003005018643
0 6.25e-05 0.0021875
0 0.001005018643 0.003130018643
0 6.25e-05 0.0023125
0 0.001005018643 0.003255018643
0 6.25e-05 0.0024375
0 0.001005018643 0.003380018643
0 6.25e-05 0.0025625
0 0.001005018643 0.003505018643
0 6.25e-05 0.0026875
0 0.001005018643 0.003630018643
0 6.25e-05 0.0028125
0 0.001005018643 0.003755018643
0 6.25e-05 0.0029375
0 0.001005018643 0.003880018643
0 6.25e-05 0.0030625
0 0.001005018643 0.004005018643
0 6.25e-05 0.0031875
0 0.001005018643 0.004130018643
0 6.25e-05 0.0033125
0 0.001005018643 0.004255018643
0 6.25e-05 0.0034375
0 0.001005018643 0.004380018643
LINES 17 54
3 0 1 2
3 3 4 5
2 6 7
3 8 9 10
2 11 12
2 13 14
2 15 16
2 17 18
2 19 20
2 21 22
2 23 24
2 25 26
2 27 28
2 29 30
2 31 32
2 33 34
2 35 36
