# vtk DataFile Version 2.0
Rays
ASCII
DATASET POLYDATA
POINTS 42 double
0 6.25e-05 0.0025625
0 0.0007518046796 0.00325180468
0 6.25e-05 0.0026875
0 0.001131625625 0.003756625625
0 6.25e-05 0.0028125
0 0.001131625625 0.003881625625
0 6.25e-05 0.0029375
0 0.001131625625 0.004006625625
0 6.25e-05 0.0030625
0 0.001131625625 0.004131625625
0 6.25e-05 0.0031875
0 0.001131625625 0.004256625625
0 6.25e-05 0.0033125
0 0.001131625625 0.004381625625
0 0.0007518046796 0.004761446571
0 6.25e-05 0.0034375
0 0.001131625625 0.004506625625
0 0.001005018643 0.004633232607
0 0.0008751789263 0.004756522119
0 0.0008602815982 0.004769707546
0 6.25e-05 0.0035625
0 0.001131625625 0.004631625625
0 0.001117558183 0.004645693068
0 0.001002145101 0.004755283745
0 0.0009823386163 0.004753415849
0 6.25e-05 0.0036875
0 0.001005018643 0.004630018643
0 6.25e-05 0.0038125
0 0.001005018643 0.004755018643
0 0.001007398274 0.004735267106
0 6.25e-05 0.0039375
0 0.0008784116615 0.004753411662
0 6.25e-05 0.0040625
0 0.0007518046796 0.00475180468
0 6.25e-05 0.0041875
0 0.0007518046796 0.00487680468
0 6.25e-05 0.0043125
0 0.0006251976976 0.004875197698
0 6.25e-05 0.0044375
0 0.001005018643 0.005380018643
0 6.25e-05 0.0045625
0 0.001005018643 0.005505018643
LINES 17 59
2 0 1
2 2 3
2 4 5
2 6 7
2 8 9
2 10 11
3 12 13 14
5 15 16 17 18 19
5 20 21 22 23 24
2 25 26
3 27 28 29
2 30 31
2 32 33
2 34 35
2 36 37
2 38 39
2 40 41
