# vtk DataFile Version 2.0
Rays
ASCII
DATASET POLYDATA
POINTS 40 double
0 6.25e-05 0.0050625
0 0.001005018643 0.006005018643
0 6.25e-05 0.0051875
0 0.001005018643 0.006130018643
0 6.25e-05 0.0031875
0 0.001131625625 0.004256625625
0 6.25e-05 0.0033125
0 0.001131625625 0.004381625625
0 6.25e-05 0.0034375
0 0.001131625625 0.004506625625
0 6.25e-05 0.0035625
0 0.001131625625 0.004631625625
0 6.25e-05 0.0036875
0 0.001131625625 0.004756625625
0 0.001077518466 0.005130726034
0 6.25e-05 0.0038125
0 0.001131625625 0.004881625625
0 0.001208717234 0.005128495422
0 0.001174466107 0.004993512579
0 6.25e-05 0.0039375
0 0.001258232607 0.005133232607
0 0.001244165165 0.00514730005
0 6.25e-05 0.0040625
0 0.001131625625 0.005131625625
0 0.001163945478 0.004996167385
0 6.25e-05 0.0041875
0 0.001005018643 0.005130018643
0 0.0007614621034 0.003115462504
0 6.25e-05 0.0043125
0 0.001005018643 0.005255018643
0 6.25e-05 0.0044375
0 0.001005018643 0.005380018643
0 6.25e-05 0.0045625
0 0.001005018643 0.005505018643
0 6.25e-05 0.0046875
0 0.001005018643 0.005630018643
0 6.25e-05 0.0048125
0 0.001005018643 0.005755018643
0 6.25e-05 0.0049375
0 0.001005018643 0.005880018643
LINES 17 57
2 0 1
2 2 3
2 4 5
2 6 7
2 8 9
2 10 11
3 12 13 14
4 15 16 17 18
3 19 20 21
3 22 23 24
3 25 26 27
2 28 29
2 30 31
2 32 33
2 34 35
2 36 37
2 38 39
