# vtk DataFile Version 2.0
Rays
ASCII
DATASET POLYDATA
POINTS 24 double
0 6.25e-05 0.0080625
0 0.001017429659 0.0080625
0 6.25e-05 0.0081875
0 0.001017429659 0.0081875
0 6.25e-05 0.0083125
0 0.001017429659 0.0083125
0 6.25e-05 0.0084375
0 0.001017429659 0.0084375
0 6.25e-05 0.0085625
0 0.001017429659 0.0085625
0 6.25e-05 0.0086875
0 0.001017429659 0.0086875
0 6.25e-05 0.0088125
0 0.001017429659 0.0088125
0 6.25e-05 0.0089375
0 0.001017429659 0.0089375
0 6.25e-05 0.0090625
0 0.001017429659 0.0090625
0 6.25e-05 0.0091875
0 0.001017429659 0.0091875
0 6.25e-05 0.0093125
0 0.001017429659 0.0093125
0 6.25e-05 0.0094375
0 0.001017429659 0.0094375
LINES 12 36
2 0 1
2 2 3
2 4 5
2 6 7
2 8 9
2 10 11
2 12 13
2 14 15
2 16 17
2 18 19
2 20 21
2 22 23
